<?xml version="1.0" encoding="UTF-8" standalone="no"?>
<svg
   xmlns:dc="http://purl.org/dc/elements/1.1/"
   xmlns:cc="http://creativecommons.org/ns#"
   xmlns:rdf="http://www.w3.org/1999/02/22-rdf-syntax-ns#"
   xmlns:svg="http://www.w3.org/2000/svg"
   xmlns="http://www.w3.org/2000/svg"
   xmlns:sodipodi="http://sodipodi.sourceforge.net/DTD/sodipodi-0.dtd"
   xmlns:inkscape="http://www.inkscape.org/namespaces/inkscape"
   width="16.0px"
   height="16.0px"
   viewBox="0 0 16.0 16.0"
   version="1.1"
   id="SVGRoot"
   sodipodi:docname="xela_path.svg"
   inkscape:version="1.0.2 (e86c870879, 2021-01-15)">
  <defs
     id="defs12">
    <rect
       x="8"
       y="8"
       width="7"
       height="7"
       id="rect915" />
    <rect
       x="0"
       y="8"
       width="7"
       height="7"
       id="rect909" />
    <rect
       x="8"
       y="0"
       width="7"
       height="7"
       id="rect901" />
    <rect
       x="0"
       y="0"
       width="7"
       height="7"
       id="rect895" />
    <rect
       x="0"
       y="0"
       width="8"
       height="8"
       id="rect867" />
    <rect
       x="3"
       y="3"
       width="5"
       height="5"
       id="rect861" />
    <rect
       x="0"
       y="0"
       width="8"
       height="8"
       id="rect855" />
  </defs>
  <sodipodi:namedview
     id="base"
     pagecolor="#ffffff"
     bordercolor="#666666"
     borderopacity="1.0"
     inkscape:pageopacity="0.0"
     inkscape:pageshadow="2"
     inkscape:zoom="31.678384"
     inkscape:cx="6.4147302"
     inkscape:cy="6.5109868"
     inkscape:document-units="px"
     inkscape:current-layer="layer1"
     inkscape:document-rotation="0"
     showgrid="true"
     inkscape:window-width="3440"
     inkscape:window-height="1372"
     inkscape:window-x="2560"
     inkscape:window-y="32"
     inkscape:window-maximized="1">
    <inkscape:grid
       type="xygrid"
       id="grid21" />
  </sodipodi:namedview>
  <metadata
     id="metadata15">
    <rdf:RDF>
      <cc:Work
         rdf:about="">
        <dc:format>image/svg+xml</dc:format>
        <dc:type
           rdf:resource="http://purl.org/dc/dcmitype/StillImage" />
        <dc:title></dc:title>
      </cc:Work>
    </rdf:RDF>
  </metadata>
  <g
     inkscape:label="Layer 1"
     inkscape:groupmode="layer"
     id="layer1">
    <circle
       style="fill:#ffff8d;fill-rule:evenodd;fill-opacity:1"
       id="path28"
       cx="8"
       cy="8"
       r="8" />
    <text
       xml:space="preserve"
       id="text853"
       style="line-height:1.25;font-family:sans-serif;font-size:4px;white-space:pre;shape-inside:url(#rect855);" />
    <text
       xml:space="preserve"
       id="text865"
       style="font-size:4px;line-height:1.25;font-family:sans-serif;white-space:pre;shape-inside:url(#rect867);" />
    <g
       aria-label="x"
       transform="translate(3.73,1.5564516)"
       id="text893"
       style="font-style:normal;font-variant:normal;font-weight:normal;font-stretch:normal;font-size:6px;line-height:1.25;font-family:'JetBrains Mono';-inkscape-font-specification:'JetBrains Mono, Normal';font-variant-ligatures:normal;font-variant-caps:normal;font-variant-numeric:normal;font-variant-east-asian:normal;white-space:pre;shape-inside:url(#rect895)">
      <path
         d="m 0.33,5.4435484 1.14,-1.698 -1.068,-1.602 h 0.636 l 0.624,1.02 q 0.072,0.114 0.144,0.27 0.066,-0.156 0.138,-0.27 l 0.63,-1.02 h 0.63 l -1.068,1.608 1.134,1.692 H 2.634 l -0.678,-1.08 q -0.066,-0.114 -0.15,-0.294 -0.09,0.174 -0.162,0.294 l -0.684,1.08 z"
         style="font-style:normal;font-variant:normal;font-weight:normal;font-stretch:normal;font-size:6px;font-family:'JetBrains Mono';-inkscape-font-specification:'JetBrains Mono, Normal';font-variant-ligatures:normal;font-variant-caps:normal;font-variant-numeric:normal;font-variant-east-asian:normal"
         id="path82" />
    </g>
    <g
       aria-label="e"
       transform="translate(0.472,1.4964516)"
       id="text899"
       style="font-style:normal;font-variant:normal;font-weight:normal;font-stretch:normal;font-size:6px;line-height:1.25;font-family:'JetBrains Mono';-inkscape-font-specification:'JetBrains Mono, @wght=600';font-variant-ligatures:normal;font-variant-caps:normal;font-variant-numeric:normal;font-variant-east-asian:normal;font-variation-settings:'wght' 600;white-space:pre;shape-inside:url(#rect901)">
      <path
         d="M 11.072,3.9255484 H 9.056 v 0.318 q 0,0.396 0.186,0.6 0.192,0.204 0.558,0.204 0.63,0 0.72,-0.444 h 0.54 q -0.054,0.414 -0.396,0.66 -0.342,0.24 -0.864,0.24 -0.582,0 -0.93,-0.342 -0.342,-0.342 -0.342,-0.918 v -0.9 q 0,-0.576 0.342,-0.918 0.348,-0.342 0.93,-0.342 0.582,0 0.924,0.342 0.348,0.342 0.348,0.918 z m -2.016,-0.408 h 1.488 v -0.174 q 0,-0.396 -0.192,-0.6 -0.186,-0.21 -0.552,-0.21 -0.366,0 -0.558,0.21 -0.186,0.204 -0.186,0.6 z"
         style="font-style:normal;font-variant:normal;font-weight:normal;font-stretch:normal;font-size:6px;font-family:'JetBrains Mono';-inkscape-font-specification:'JetBrains Mono, @wght=600';font-variant-ligatures:normal;font-variant-caps:normal;font-variant-numeric:normal;font-variant-east-asian:normal;font-variation-settings:'wght' 600"
         id="path85" />
    </g>
    <g
       aria-label="l"
       transform="translate(3.79,-1.0295484)"
       id="text907"
       style="font-style:normal;font-variant:normal;font-weight:normal;font-stretch:normal;font-size:6px;line-height:1.25;font-family:'JetBrains Mono';-inkscape-font-specification:'JetBrains Mono, Normal';font-variant-ligatures:normal;font-variant-caps:normal;font-variant-numeric:normal;font-variant-east-asian:normal;white-space:pre;shape-inside:url(#rect909)">
      <path
         d="m 2.19,13.443548 q -0.438,0 -0.702,-0.252 -0.258,-0.258 -0.258,-0.678 V 9.5555484 H 0.24 v -0.492 h 1.53 v 3.4499996 q 0,0.204 0.114,0.324 0.114,0.114 0.306,0.114 H 3.3 v 0.492 z"
         id="path88" />
    </g>
    <g
       aria-label="a"
       transform="translate(0.61,-1.0895484)"
       id="text913"
       style="font-style:normal;font-variant:normal;font-weight:normal;font-stretch:normal;font-size:6px;line-height:1.25;font-family:'JetBrains Mono';-inkscape-font-specification:'JetBrains Mono, Normal';font-variant-ligatures:normal;font-variant-caps:normal;font-variant-numeric:normal;font-variant-east-asian:normal;white-space:pre;shape-inside:url(#rect915)">
      <path
         d="m 9.812,10.089548 q 0.576,0 0.912,0.294 0.336,0.288 0.336,0.792 v 2.268 h -0.528 v -0.63 h -0.006 q -0.024,0.312 -0.312,0.504 -0.288,0.186 -0.72,0.186 -0.504,0 -0.804,-0.264 -0.3,-0.264 -0.3,-0.714 0,-0.474 0.294,-0.744 0.3,-0.27 0.816,-0.27 h 1.02 v -0.318 q 0,-0.3 -0.192,-0.462 -0.186,-0.168 -0.522,-0.168 -0.294,0 -0.486,0.12 -0.192,0.12 -0.222,0.33 h -0.54 q 0.054,-0.42 0.396,-0.672 0.342,-0.252 0.858,-0.252 z m -0.192,2.988 q 0.396,0 0.648,-0.186 0.252,-0.192 0.252,-0.498 v -0.468 H 9.512 q -0.27,0 -0.426,0.15 -0.156,0.15 -0.156,0.414 0,0.276 0.186,0.432 0.186,0.156 0.504,0.156 z"
         style="font-style:normal;font-variant:normal;font-weight:normal;font-stretch:normal;font-size:6px;font-family:'JetBrains Mono';-inkscape-font-specification:'JetBrains Mono, Normal';font-variant-ligatures:normal;font-variant-caps:normal;font-variant-numeric:normal;font-variant-east-asian:normal"
         id="path91" />
    </g>
  </g>
</svg>
